<mxfile host="app.diagrams.net" modified="2024-01-22T18:02:36.084Z" agent="Mozilla/5.0 (X11; Ubuntu; Linux x86_64; rv:120.0) Gecko/20100101 Firefox/120.0" version="22.1.21" etag="9XTSDgs54BqQ9np_mR3f" type="github">
  <diagram name="Page-1" id="V6JKAcbkhjwuNbdjSWxh">
    <mxGraphModel>
      <root>
        <mxCell id="0" />
        <mxCell id="1" parent="0" />
      </root>
    </mxGraphModel>
  </diagram>
</mxfile>
